name Walk5.mot
datacolumns 19
datarows 27
range 1.22100000 1.24700000
endheader

                time	   L_ground_force_vx	   L_ground_force_vy	   L_ground_force_vz	   L_ground_force_px	   L_ground_force_py	   L_ground_force_pz	   R_ground_force_vx	   R_ground_force_vy	   R_ground_force_vz	   R_ground_force_px	   R_ground_force_py	   R_ground_force_pz	   L_ground_torque_x	   L_ground_torque_y	   L_ground_torque_z	   R_ground_torque_x	   R_ground_torque_y	   R_ground_torque_z	
          1.22100000	         -1.88180399	         65.45120699	         -4.92749778	          0.00107443	          0.00000000	          0.00214400	         -0.00000000	          0.00000000	         -0.00000000	          0.00000000	          0.00000000	          0.00000000	          0.00000000	          0.08429564	          0.00000000	          0.00000000	          0.00000000	          0.00000000	
          1.22200000	         -2.37413232	         71.14621040	         -5.18214777	         -0.01706504	          0.00000000	         -0.00029008	         -0.00000000	          0.00000000	         -0.00000000	          0.00000000	          0.00000000	          0.00000000	          0.00000000	          0.09078472	          0.00000000	          0.00000000	          0.00000000	          0.00000000	
          1.22300000	         -2.90186708	         77.01465377	         -5.43808443	         -0.03514812	          0.00000000	         -0.00271926	         -0.00000000	          0.00000000	         -0.00000000	          0.00000000	          0.00000000	          0.00000000	          0.00000000	          0.09771577	          0.00000000	          0.00000000	          0.00000000	          0.00000000	
          1.22400000	         -3.46613038	         83.04973679	         -5.69439111	         -0.05313048	          0.00000000	         -0.00513795	         -0.00000000	          0.00000000	         -0.00000000	          0.00000000	          0.00000000	          0.00000000	          0.00000000	          0.10509668	          0.00000000	          0.00000000	          0.00000000	          0.00000000	
          1.22500000	         -4.06799877	         89.24345591	         -5.95006624	         -0.07096724	          0.00000000	         -0.00754053	         -0.00000000	          0.00000000	         -0.00000000	          0.00000000	          0.00000000	          0.00000000	          0.00000000	          0.11293381	          0.00000000	          0.00000000	          0.00000000	          0.00000000	
          1.22600000	         -4.70849438	         95.58651033	         -6.20401945	         -0.08861270	          0.00000000	         -0.00992126	         -0.00000000	          0.00000000	         -0.00000000	          0.00000000	          0.00000000	          0.00000000	          0.00000000	          0.12123187	          0.00000000	          0.00000000	          0.00000000	          0.00000000	
          1.22700000	         -5.38857572	        102.06822101	         -6.45506771	         -0.10602046	          0.00000000	         -0.01227439	         -0.00000000	          0.00000000	         -0.00000000	          0.00000000	          0.00000000	          0.00000000	          0.00000000	          0.12999377	          0.00000000	          0.00000000	          0.00000000	          0.00000000	
          1.22800000	         -6.10912831	        108.67650868	         -6.70193279	         -0.12314489	          0.00000000	         -0.01459426	         -0.00000000	          0.00000000	         -0.00000000	          0.00000000	          0.00000000	         -0.00000000	          0.00000000	          0.13922025	          0.00000000	          0.00000000	          0.00000000	          0.00000000	
          1.22900000	         -6.87095539	        115.39796235	         -6.94324044	         -0.13994334	          0.00000000	         -0.01687569	         -0.00000000	          0.00000000	         -0.00000000	         -0.00000000	          0.00000000	         -0.00000000	          0.00000000	          0.14890946	          0.00000000	          0.00000000	          0.00000000	          0.00000000	
          1.23000000	         -7.67476850	        122.21798736	         -7.17752193	         -0.15637762	          0.00000000	         -0.01911411	         -0.00000000	          0.00000000	         -0.00000000	         -0.00000000	          0.00000000	         -0.00000000	          0.00000000	          0.15905679	          0.00000000	          0.00000000	          0.00000000	          0.00000000	
          1.23100000	         -8.52117697	        129.12102756	         -7.40321796	         -0.17241415	          0.00000000	         -0.02130555	         -0.00000000	          0.00000000	         -0.00000000	         -0.00000000	          0.00000000	         -0.00000000	          0.00000000	          0.16965510	          0.00000000	          0.00000000	          0.00000000	          0.00000000	
          1.23200000	         -9.41067546	        136.09087977	         -7.61868594	         -0.18802368	          0.00000000	         -0.02344665	         -0.00000000	          0.00000000	         -0.00000000	         -0.00000000	          0.00000000	         -0.00000000	          0.00000000	          0.18069516	          0.00000000	          0.00000000	          0.00000000	          0.00000000	
          1.23300000	        -10.34362809	        143.11110497	         -7.82221142	         -0.20318103	          0.00000000	         -0.02553455	         -0.00000000	          0.00000000	         -0.00000000	         -0.00000000	          0.00000000	         -0.00000000	          0.00000000	          0.19216631	          0.00000000	          0.00000000	          0.00000000	          0.00000000	
          1.23400000	        -11.32024794	        150.16551284	         -8.01202484	         -0.21786485	          0.00000000	         -0.02756684	         -0.00000000	         -0.00000000	         -0.00000000	         -0.00000000	          0.00000000	         -0.00000000	          0.00000000	          0.20405712	          0.00000000	          0.00000000	          0.00000000	          0.00000000	
          1.23500000	        -12.34057207	        157.23867267	         -8.18632394	         -0.23205738	          0.00000000	         -0.02954158	         -0.00000000	         -0.00000000	         -0.00000000	         -0.00000000	          0.00000000	         -0.00000000	          0.00000000	          0.21635592	          0.00000000	          0.00000000	          0.00000000	          0.00000000	
          1.23600000	        -13.40443346	        164.31638880	         -8.34330155	         -0.24574420	          0.00000000	         -0.03145719	         -0.00000000	         -0.00000000	         -0.00000000	         -0.00000000	          0.00000000	         -0.00000000	          0.00000000	          0.22905100	          0.00000000	          0.00000000	          0.00000000	          0.00000000	
          1.23700000	        -14.51143314	        171.38607959	         -8.48117705	         -0.25891398	          0.00000000	         -0.03331248	         -0.00000000	         -0.00000000	         -0.00000000	         -0.00000000	          0.00000000	         -0.00000000	          0.00000000	          0.24213074	          0.00000000	          0.00000000	          0.00000000	          0.00000000	
          1.23800000	        -15.66091627	        178.43701573	         -8.59822909	         -0.27155833	          0.00000000	         -0.03510660	         -0.00000000	         -0.00000000	         -0.00000000	         -0.00000000	          0.00000000	         -0.00000000	          0.00000000	          0.25558338	          0.00000000	          0.00000000	          0.00000000	          0.00000000	
          1.23900000	        -16.85195590	        185.46040096	         -8.69282631	         -0.28367154	          0.00000000	         -0.03683899	         -0.00000000	         -0.00000000	         -0.00000000	         -0.00000000	          0.00000000	         -0.00000000	          0.00000000	          0.26939681	          0.00000000	          0.00000000	          0.00000000	          0.00000000	
          1.24000000	        -18.08334654	        192.44930503	         -8.76345376	         -0.29525036	          0.00000000	         -0.03850941	         -0.00000000	         -0.00000000	         -0.00000000	         -0.00000000	          0.00000000	         -0.00000000	          0.00000000	          0.28355827	          0.00000000	          0.00000000	          0.00000000	          0.00000000	
          1.24100000	        -19.35360815	        199.39847927	         -8.80873319	         -0.30629386	          0.00000000	         -0.04011787	         -0.00000000	         -0.00000000	         -0.00000000	         -0.00000000	          0.00000000	         -0.00000000	          0.00000000	          0.29805408	          0.00000000	          0.00000000	          0.00000000	          0.00000000	
          1.24200000	        -20.66099905	        206.30409573	         -8.82743690	         -0.31680322	          0.00000000	         -0.04166459	         -0.00000000	         -0.00000000	         -0.00000000	         -0.00000000	          0.00000000	         -0.00000000	          0.00000000	          0.31286941	          0.00000000	          0.00000000	          0.00000000	          0.00000000	
          1.24300000	        -22.00353503	        213.16345168	         -8.81849576	         -0.32678151	          0.00000000	         -0.04315004	         -0.00000000	         -0.00000001	         -0.00000000	         -0.00000000	          0.00000000	         -0.00000000	          0.00000000	          0.32798803	          0.00000000	          0.00000000	          0.00000000	          0.00000000	
          1.24400000	        -23.37901166	        219.97467562	         -8.78100259	         -0.33623358	          0.00000000	         -0.04457487	         -0.00000000	         -0.00000001	         -0.00000000	         -0.00000000	          0.00000000	         -0.00000000	          0.00000000	          0.34339218	          0.00000000	          0.00000000	          0.00000000	          0.00000000	
          1.24500000	        -24.78502707	        226.73646103	         -8.71421246	         -0.34516587	          0.00000000	         -0.04593990	         -0.00000000	         -0.00000001	         -0.00000000	         -0.00000000	          0.00000000	         -0.00000000	          0.00000000	          0.35906248	          0.00000000	          0.00000000	          0.00000000	          0.00000000	
          1.24600000	        -26.21900344	        233.44784364	         -8.61754115	         -0.35358623	          0.00000000	         -0.04724609	         -0.00000000	         -0.00000001	         -0.00000000	         -0.00000000	          0.00000000	         -0.00000000	          0.00000000	          0.37497798	          0.00000000	          0.00000000	          0.00000000	          0.00000000	
          1.24700000	        -27.67820663	        240.10802857	         -8.49056260	         -0.36150382	          0.00000000	         -0.04849454	         -0.00000000	         -0.00000001	         -0.00000000	         -0.00000000	          0.00000000	         -0.00000000	          0.00000000	          0.39111625	          0.00000000	          0.00000000	          0.00000000	          0.00000000	
